<?xml version="1.0" encoding="UTF-8"?>
<svg width="252px" height="288px" viewBox="0 0 252 288" version="1.1" xmlns="http://www.w3.org/2000/svg" xmlns:xlink="http://www.w3.org/1999/xlink">
    <!-- Generator: Sketch 63.1 (92452) - https://sketch.com -->
    <title>undraw_mathematics_4otb (2)</title>
    <desc>Created with Sketch.</desc>
    <g id="Page-1" stroke="none" stroke-width="1" fill="none" fill-rule="evenodd">
        <g id="Login1" transform="translate(-896.000000, -424.000000)" fill-rule="nonzero">
            <g id="undraw_mathematics_4otb-(2)" transform="translate(896.000000, 424.000000)">
                <ellipse id="Oval" fill="#000000" opacity="0.1" cx="83.8931298" cy="275.351866" rx="51.9603053" ry="6.33129771"></ellipse>
                <ellipse id="Oval" fill="#3F3D56" cx="83.6748092" cy="227.539653" rx="49.1221374" ry="52.3969466"></ellipse>
                <rect id="Rectangle" fill="#6C63FF" x="68.610687" y="258.541179" width="30.5648855" height="27.9450382"></rect>
                <polygon id="Path" fill="#575A89" points="139.128244 265.309319 137.381679 274.915426 148.734351 276.661991 156.157252 272.295579 155.720611 265.309319"></polygon>
                <path d="M81.9282443,84.9762938 C81.9282443,84.9762938 81.0549618,95.0190419 78.8717557,95.4556831 C76.6885496,95.8923243 83.6748092,113.357973 83.6748092,113.357973 L94.1541985,113.357973 L102.450382,111.174767 L98.5206107,101.56866 C98.5206107,101.56866 93.280916,94.5824007 97.210687,88.9060648 C101.140458,83.2297289 81.9282443,84.9762938 81.9282443,84.9762938 Z" id="Path" fill="#A0616A"></path>
                <path d="M81.9282443,84.9762938 C81.9282443,84.9762938 81.0549618,95.0190419 78.8717557,95.4556831 C76.6885496,95.8923243 83.6748092,113.357973 83.6748092,113.357973 L94.1541985,113.357973 L102.450382,111.174767 L98.5206107,101.56866 C98.5206107,101.56866 93.280916,94.5824007 97.210687,88.9060648 C101.140458,83.2297289 81.9282443,84.9762938 81.9282443,84.9762938 Z" id="Path" fill="#000000" opacity="0.1"></path>
                <path d="M60.0961832,161.825149 C60.0961832,161.825149 48.7435115,183.65721 57.9129771,188.023622 C67.0824427,192.390034 69.2656489,191.953393 69.2656489,193.263317 C69.2656489,194.57324 67.519084,194.136599 68.3923664,196.319805 C69.2656489,198.503011 66.6458015,207.235836 69.2656489,212.47553 C71.8854962,217.715225 71.0122137,221.644996 71.0122137,221.644996 C71.0122137,221.644996 71.0122137,222.081637 71.8854962,223.828202 C72.7587786,225.574767 73.1954198,226.884691 72.7587786,227.757973 C72.3221374,228.631256 69.7022901,234.307592 72.3221374,235.617515 C74.9419847,236.927439 88.4778626,237.800721 89.7877863,235.617515 C91.0977099,233.434309 88.4778626,232.124385 89.7877863,230.814462 C91.0977099,229.504538 91.9709924,229.067897 91.0977099,228.194614 C90.2244275,227.321332 89.351145,216.405301 89.351145,216.405301 C89.351145,216.405301 91.5343511,203.742706 90.6610687,201.996141 C89.7877863,200.249576 88.4778626,198.503011 89.351145,197.193088 C90.2244275,195.883164 91.0977099,196.319805 91.5343511,194.57324 C91.9709924,192.826675 92.8442748,188.896904 92.8442748,188.896904 L97.6473282,188.460263 L109,190.643469 C109,190.643469 121.662595,204.615988 135.635115,208.982401 C135.635115,208.982401 139.564885,212.912172 140.874809,212.912172 C142.184733,212.912172 142.184733,212.912172 141.748092,213.785454 C141.31145,214.658737 140.001527,214.658737 140.874809,215.532019 C141.748092,216.405301 143.058015,215.095378 142.184733,216.405301 C141.31145,217.715225 140.438168,217.715225 141.31145,218.588508 C142.184733,219.46179 140.874809,224.264843 140.874809,224.701485 C140.874809,225.138126 136.945038,266.182401 138.254962,267.055683 C139.564885,267.928966 157.903817,270.548813 159.21374,267.055683 C160.523664,263.562553 158.340458,259.196141 158.340458,259.196141 C158.340458,259.196141 164.890076,206.799195 163.143511,203.306065 C161.396947,199.812935 155.283969,184.093851 122.535878,174.051103 C122.535878,174.051103 113.366412,172.304538 113.366412,170.994614 C113.366412,169.684691 112.49313,161.388508 110.746565,160.951866 C109,160.515225 98.9572519,160.078584 98.9572519,160.078584 L86.2946565,164.008355 L68.8290076,160.951866 L60.0961832,161.825149 Z" id="Path" fill="#2F2E41"></path>
                <path d="M75.378626,235.180874 L73.1954198,243.040416 C73.1954198,243.040416 71.448855,255.703011 73.6320611,258.7595 C75.3469214,261.160302 78.4087632,264.099897 84.0872124,264.615819 C87.3656805,264.916585 90.4124616,262.897739 91.413419,259.761356 C91.4785755,259.579135 91.5192474,259.389069 91.5343686,259.196141 C91.5343686,258.322859 90.2244449,247.843469 90.2244449,247.843469 L88.0412388,236.927439 L87.6045976,233.87095 L75.378626,235.180874 Z" id="Path" fill="#2F2E41"></path>
                <path d="M139.128244,272.732019 C139.128244,272.732019 136.945038,270.548813 136.508397,272.732019 C136.071756,274.915225 134.325191,284.084691 137.381679,284.521332 C140.438168,284.957973 169.69313,289.324385 172.749618,287.577821 C175.806107,285.831256 181.482443,283.211408 177.989313,281.901485 C174.496183,280.591561 164.453435,276.66179 164.453435,276.66179 C164.453435,276.66179 158.777099,269.238889 157.903817,268.802248 C157.030534,268.365607 152.227481,269.238889 150.044275,270.985454 C147.861069,272.732019 139.128244,272.732019 139.128244,272.732019 Z" id="Path" fill="#2F2E41"></path>
                <circle id="Oval" fill="#A0616A" cx="92.4076336" cy="80.6098816" r="13.5358779"></circle>
                <path d="M91.0977099,111.174767 L85.8580153,105.498431 L80.0500452,94.1457595 C80.0500452,94.1457595 75.8152672,92.8358358 74.9419847,95.0190419 C74.0687023,97.202248 58.3496183,104.188508 58.3496183,104.188508 C58.3496183,104.188508 62.2793893,140.86637 60.5328244,144.3595 C58.7862595,147.85263 55.729771,161.825149 58.3496183,163.135072 C60.9694656,164.444996 73.1954198,163.135072 77.1251908,164.881637 C81.0549618,166.628202 92.4076336,166.628202 95.4641221,164.444996 C98.5206107,162.26179 99.3938931,160.515225 102.450382,161.825149 C105.05244,162.94033 111.135503,124.815002 112.886823,113.453598 C113.187848,111.506966 112.356906,109.558357 110.743757,108.427984 C106.82588,105.679834 99.7697539,100.944106 98.5206107,101.568678 C96.7740458,102.441943 91.0977099,111.174767 91.0977099,111.174767 Z" id="Path" fill="#575A89"></path>
                <path d="M109.873282,109.428202 L109.873282,109.428202 C111.973168,109.953173 113.525002,111.728822 113.764031,113.880096 L117.296179,145.669424 C117.296179,145.669424 108.563354,164.444996 104.196942,151.782401 C99.83053,139.119805 109.873282,109.428202 109.873282,109.428202 Z" id="Path" fill="#575A89"></path>
                <path d="M109,148.725912 L118.606107,146.106065 C118.606107,146.106065 120.352672,158.332019 122.099237,158.332019 C123.845802,158.332019 115.98626,165.318279 112.056489,164.444996 C108.126718,163.571714 102.450382,160.515225 102.01374,158.332019 C101.577099,156.148813 105.943511,146.979347 105.943511,146.979347 L109,148.725912 Z" id="Path" fill="#575A89"></path>
                <path d="M82.1894824,86.4490715 C83.1098871,84.4195631 82.9500808,82.0522429 83.7110155,79.9577317 C84.536961,77.6842821 86.3781924,75.9276429 88.6879473,75.2094565 C90.9977021,74.4912701 93.5103957,74.8941164 95.4798718,76.2983683 C96.4587253,76.9963 97.4400765,77.9768914 98.6348622,77.8436416 C99.9215173,77.7001656 101.069137,76.2647775 102.252085,76.7908297 C103.563219,77.3738898 103.209089,79.723644 104.537426,80.2663716 C105.23662,80.5520485 106.062854,80.1121892 106.466136,79.4735621 C106.818818,78.8024597 107.011004,78.0586891 107.027582,77.3007393 C107.210867,75.4384296 107.376498,73.467466 106.568838,71.7794416 C106.229122,71.2072926 105.93307,70.6103215 105.683203,69.993614 C105.541897,69.4177014 105.485178,68.824286 105.51483,68.232033 C105.507455,66.0431113 105.34768,63.7598881 104.246091,61.8683496 C103.023692,59.7693672 100.764108,58.4271802 98.406774,57.8415264 C96.0494397,57.2558726 93.5797053,57.3456722 91.1593724,57.5505705 C87.1583241,57.8892906 82.9857675,58.6153551 79.8335279,61.1026468 C79.4050653,61.4156458 79.0363088,61.8030623 78.7448241,62.2464416 C78.4681317,62.7731538 78.2726219,63.3386543 78.1649165,63.9237901 C77.4833829,66.6991356 76.4615209,69.3796321 75.1225577,71.9043516 C74.4784817,72.974653 73.9521136,74.1115073 73.5526448,75.2950628 C73.2183566,76.4977561 73.2409397,77.8683773 73.9406878,78.9020904 C74.5103955,79.7436946 75.4211854,80.1922037 76.136753,80.8802673 C76.8458016,81.5620651 77.177566,82.8732638 77.9630136,83.3895265 C78.6486845,83.8402057 79.4699935,83.5220733 80.1693181,83.9997413 C81.067166,84.613017 81.1320159,85.9577148 82.1894824,86.4490715 Z" id="Path" fill="#2F2E41"></path>
                <path d="M93.280916,117.724385 L94.5908397,115.104538 C94.5908397,115.104538 113.803053,120.780874 117.732824,126.020569 C117.732824,126.020569 127.338931,119.907592 132.578626,120.780874 L137.818321,121.654156 L121.662595,136.063317 L101.140458,134.316752 L93.280916,117.724385 Z" id="Path" fill="#F2F2F2"></path>
                <path d="M92.4076336,115.104538 L74.5053435,139.993088 L100.267176,152.655683 C100.267176,152.655683 102.675566,153.965607 104.527859,152.655683 L121.662595,144.796141 L137.818321,121.654156 L121.662595,129.95034 C121.662595,129.95034 119.916031,126.45721 116.422901,128.203775 L92.4076336,115.104538 Z" id="Path" fill="#6C63FF"></path>
                <path d="M119.916031,159.205301 L123.40916,150.035836 C123.40916,150.035836 131.268702,139.993088 126.90229,135.190034 C122.535878,130.386981 117.732824,149.162553 117.732824,149.162553 L119.916031,159.205301 Z" id="Path" fill="#A0616A"></path>
                <path d="M79.6130328,157.742025 L87.2351467,151.562678 C87.2351467,151.562678 99.0724903,146.818572 97.7051526,140.4731 C96.337815,134.127629 82.7630586,147.959371 82.7630586,147.959371 L79.6130328,157.742025 Z" id="Path" fill="#A0616A"></path>
                <path d="M60.751145,113.576294 L60.3145038,113.576294 C60.3145038,113.576294 53.5465649,105.498431 52.2366412,116.414462 C50.9267176,127.330492 46.5603053,163.571714 57.9129771,164.881637 C69.2656489,166.191561 77.3435115,159.423622 77.3435115,159.423622 C77.3435115,159.423622 85.6396947,146.761027 82.5832061,146.761027 C81.1043416,146.761027 77.0822472,146.096825 73.4137405,146.324385 C69.5002475,146.567158 65.9837879,147.669581 66.2091603,146.542706 C66.6458015,144.3595 72.9770992,116.632782 60.751145,113.576294 Z" id="Path" fill="#000000" opacity="0.1"></path>
                <path d="M60.0961832,105.06179 L58.3496183,104.188508 C58.3496183,104.188508 51.3633588,105.498431 50.0534351,116.414462 C48.7435115,127.330492 44.3770992,163.571714 55.729771,164.881637 C67.0824427,166.191561 82.3648855,163.135072 82.3648855,163.135072 C82.3648855,163.135072 85.421374,146.542706 82.3648855,146.542706 C79.3083969,146.542706 63.589313,148.725912 64.0259542,146.542706 C64.4625954,144.3595 72.3221374,108.118279 60.0961832,105.06179 Z" id="Path" fill="#575A89"></path>
                <polygon id="Path" fill="#575A89" points="113.584733 154.184128 118.399576 146.804455 121.444275 158.987182 113.584733 162.480311"></polygon>
                <circle id="Oval" fill="#F2F2F2" cx="14.673768" cy="37.1640801" r="11.789313"></circle>
                <rect id="Rectangle" fill="#F2F2F2" x="0.701248916" y="124.928966" width="27.9450382" height="27.9450382"></rect>
                <polygon id="Path" fill="#F2F2F2" points="128.430534 0 135.503685 12.2508427 142.5764 24.5016855 128.430534 24.5016855 114.284669 24.5016855 121.357383 12.2508427"></polygon>
                <path d="M251.666659,73.4557291 C251.497598,78.6824381 250.22477,82.8717952 247.848175,86.0238005 C245.471185,89.1761492 242.64736,90.7524662 239.376702,90.7527515 C236.712679,90.7527515 234.377751,89.2101548 232.37192,86.1249615 C230.365458,83.0398293 229.362348,78.294133 229.362589,71.8878728 C229.362589,70.471758 229.396311,69.1230576 229.463755,67.8417718 C229.530965,66.5607713 229.615268,65.3469552 229.716661,64.2003238 L231.486844,47.5608001 L219.803679,47.5608001 C217.780755,68.6004185 216.120192,81.117985 214.821991,85.1134996 C213.523673,89.1089298 211.32363,91.106837 208.221862,91.106837 C206.821753,91.0723955 205.485784,90.5127412 204.47917,89.5389762 C203.297323,88.49172 202.647611,86.9695188 202.708983,85.3916269 C202.708983,83.8412595 203.931229,81.6749369 206.375721,78.892659 C208.8201,76.1109313 210.17723,73.5737067 210.447112,71.2809851 L213.481664,47.560787 L208.575934,47.560787 C207.192924,47.5690366 205.831838,47.9071194 204.605709,48.5469587 C203.477146,49.0652909 202.495159,49.8560774 201.748106,50.8481627 L199.573266,54.0850408 L197.803083,54.0850408 C199.454786,48.9602701 201.48628,45.108067 203.897564,42.5284314 C206.307823,39.9490287 209.081067,38.6593536 212.217295,38.6593536 L250.857524,38.6593536 L250.857524,47.5607695 L237.80885,47.5607695 C237.404197,51.6068705 237.092306,55.6529336 236.873176,59.6989588 C236.653531,63.7450598 236.543966,67.8080209 236.544481,71.8878422 C236.544481,74.6529455 237.185124,76.895168 238.46641,78.6145098 C239.747411,80.3341135 241.34899,81.1938863 243.271149,81.1938281 C244.450989,81.1938281 245.690095,80.7133306 246.988468,79.7523357 C248.236035,78.8771885 249.03952,77.5011347 249.188511,75.9845237 C249.289678,75.2432029 249.365521,74.6615706 249.41604,74.2396267 C249.466624,73.8184281 249.491949,73.5571187 249.492016,73.4556986 L251.666659,73.4557291 Z" id="Path" fill="#6C63FF"></path>
                <path d="M251.666659,73.4557291 C251.497598,78.6824381 250.22477,82.8717952 247.848175,86.0238005 C245.471185,89.1761492 242.64736,90.7524662 239.376702,90.7527515 C236.712679,90.7527515 234.377751,89.2101548 232.37192,86.1249615 C230.365458,83.0398293 229.362348,78.294133 229.362589,71.8878728 C229.362589,70.471758 229.396311,69.1230576 229.463755,67.8417718 C229.530965,66.5607713 229.615268,65.3469552 229.716661,64.2003238 L231.486844,47.5608001 L219.803679,47.5608001 C217.780755,68.6004185 216.120192,81.117985 214.821991,85.1134996 C213.523673,89.1089298 211.32363,91.106837 208.221862,91.106837 C206.821753,91.0723955 205.485784,90.5127412 204.47917,89.5389762 C203.297323,88.49172 202.647611,86.9695188 202.708983,85.3916269 C202.708983,83.8412595 203.931229,81.6749369 206.375721,78.892659 C208.8201,76.1109313 210.17723,73.5737067 210.447112,71.2809851 L213.481664,47.560787 L208.575934,47.560787 C207.192924,47.5690366 205.831838,47.9071194 204.605709,48.5469587 C203.477146,49.0652909 202.495159,49.8560774 201.748106,50.8481627 L199.573266,54.0850408 L197.803083,54.0850408 C199.454786,48.9602701 201.48628,45.108067 203.897564,42.5284314 C206.307823,39.9490287 209.081067,38.6593536 212.217295,38.6593536 L250.857524,38.6593536 L250.857524,47.5607695 L237.80885,47.5607695 C237.404197,51.6068705 237.092306,55.6529336 236.873176,59.6989588 C236.653531,63.7450598 236.543966,67.8080209 236.544481,71.8878422 C236.544481,74.6529455 237.185124,76.895168 238.46641,78.6145098 C239.747411,80.3341135 241.34899,81.1938863 243.271149,81.1938281 C244.450989,81.1938281 245.690095,80.7133306 246.988468,79.7523357 C248.236035,78.8771885 249.03952,77.5011347 249.188511,75.9845237 C249.289678,75.2432029 249.365521,74.6615706 249.41604,74.2396267 C249.466624,73.8184281 249.491949,73.5571187 249.492016,73.4556986 L251.666659,73.4557291 Z" id="Path" fill="#000000" opacity="0.1"></path>
                <path d="M251.666659,71.8755245 C251.497598,77.1022335 250.22477,81.2915906 247.848175,84.4435959 C245.471185,87.5959446 242.64736,89.1722617 239.376702,89.1725469 C236.712679,89.1725469 234.377751,87.6299517 232.37192,84.5447613 C230.365458,81.4596262 229.362348,76.7139285 229.362589,70.3076682 C229.362589,68.8915534 229.396311,67.5428531 229.463755,66.2615672 C229.530965,64.9805667 229.615268,63.7667521 229.716661,62.6201235 L231.486844,45.9805737 L219.803679,45.9805737 C217.780755,67.0202066 216.120192,79.5377804 214.821991,83.533295 C213.523673,87.5287281 211.32363,89.5266324 208.221862,89.5266324 C206.821753,89.4921909 205.485784,88.9325366 204.47917,87.9587717 C203.297323,86.9115171 202.647611,85.3893173 202.708983,83.8114267 C202.708983,82.2610593 203.931229,80.0947366 206.375721,77.3124588 C208.8201,74.5307282 210.17723,71.9935036 210.447112,69.7007849 L213.481664,45.9805824 L208.575934,45.9805824 C207.192924,45.9888321 205.831838,46.3269148 204.605709,46.9667541 C203.477146,47.4850863 202.495159,48.2758728 201.748106,49.2679581 L199.573266,52.5048406 L197.803083,52.5048406 C199.454786,47.3800641 201.48628,43.527861 203.897564,40.9482312 C206.307823,38.3688256 209.081067,37.0791533 212.217295,37.0791533 L250.857524,37.0791533 L250.857524,45.9805693 L237.80885,45.9805693 C237.404197,50.0266703 237.092306,54.0727421 236.873176,58.1187848 C236.653531,62.1648829 236.543966,66.2278425 236.544481,70.3076638 C236.544481,73.0727671 237.185124,75.3149897 238.46641,77.0343314 C239.747411,78.7539352 241.34899,79.6137079 243.271149,79.6136497 C244.450989,79.6136497 245.690095,79.1331522 246.988468,78.1721573 C248.236035,77.2970101 249.03952,75.9209563 249.188511,74.4043453 C249.289678,73.6630245 249.365521,73.0813937 249.41604,72.6594527 C249.466624,72.2382395 249.491949,71.9769287 249.492016,71.8755202 L251.666659,71.8755245 Z" id="Path" fill="#6C63FF"></path>
            </g>
        </g>
    </g>
</svg>